<svg width="80" height="80" viewBox="0 0 80 80" fill="none" xmlns="http://www.w3.org/2000/svg">
<circle cx="40" cy="40" r="40" fill="black"/>
<line x1="1.5" y1="-1.5" x2="28.1142" y2="-1.5" transform="matrix(-0.97926 0.202606 0.202606 0.97926 42 59)" stroke="white" stroke-width="3" stroke-linecap="round"/>
<line x1="34.7523" y1="52.7156" x2="18.7156" y2="55.2477" stroke="white" stroke-width="3" stroke-linecap="round"/>
<line x1="34.6653" y1="46.6488" x2="18.6488" y2="48.3347" stroke="white" stroke-width="3" stroke-linecap="round"/>
<line x1="34.5" y1="39.5" x2="18.5" y2="39.5" stroke="white" stroke-width="3" stroke-linecap="round"/>
<line x1="34.3512" y1="29.3347" x2="18.3347" y2="27.6488" stroke="white" stroke-width="3" stroke-linecap="round"/>
<line x1="13.5" y1="17.5" x2="13.5" y2="63.5" stroke="white" stroke-width="3" stroke-linecap="round"/>
<line x1="40.5" y1="23.5" x2="40.5" y2="57.5" stroke="white" stroke-width="3" stroke-linecap="round"/>
<line x1="40.2272" y1="23.165" x2="14.165" y2="17.7728" stroke="white" stroke-width="3" stroke-linecap="round"/>
<line x1="39.7728" y1="57.835" x2="65.835" y2="63.2272" stroke="white" stroke-width="3" stroke-linecap="round"/>
<line x1="1.5" y1="-1.5" x2="17.7354" y2="-1.5" transform="matrix(0.987763 0.155963 0.155963 -0.987763 44 51)" stroke="white" stroke-width="3" stroke-linecap="round"/>
<line x1="1.5" y1="-1.5" x2="17.605" y2="-1.5" transform="matrix(0.994506 0.104685 0.104685 -0.994506 44 45)" stroke="white" stroke-width="3" stroke-linecap="round"/>
<line x1="1.5" y1="-1.5" x2="17.5" y2="-1.5" transform="matrix(1 6.13805e-09 6.13805e-09 -1 44 38)" stroke="white" stroke-width="3" stroke-linecap="round"/>
<line x1="1.5" y1="-1.5" x2="17.605" y2="-1.5" transform="matrix(0.994506 -0.104685 -0.104685 -0.994506 44 28)" stroke="white" stroke-width="3" stroke-linecap="round"/>
<line x1="1.5" y1="-1.5" x2="47.5" y2="-1.5" transform="matrix(0 1 1 0 68 16)" stroke="white" stroke-width="3" stroke-linecap="round"/>
<line x1="1.5" y1="-1.5" x2="28.1142" y2="-1.5" transform="matrix(0.97926 -0.202606 -0.202606 -0.97926 38 22)" stroke="white" stroke-width="3" stroke-linecap="round"/>
</svg>
